<svg xmlns="http://www.w3.org/2000/svg" version="1.1" xmlns:xlink="http://www.w3.org/1999/xlink" xmlns:svgjs="http://svgjs.dev/svgjs" viewBox="0 0 8.283802729893779 9.495630581737455"><g transform="matrix(1,0,0,1,0.7387424904351714,5.580375591302283)"><g><path d=" M 1.0005 0.9285 Q 1.0005 0.9375 0.996 0.9375 L 0.8280000000000001 0.9375 Q 0.804 0.9375 0.7875 0.939 Q 0.771 0.9405 0.7605000000000001 0.9405 Q 0.7365 0.9405 0.7192500000000001 0.92925 Q 0.7020000000000001 0.918 0.67725 0.888 Q 0.6525 0.858 0.5895 0.7725 Q 0.582 0.762 0.57225 0.74925 Q 0.5625 0.7364999999999999 0.5505 0.72 L 0.354 0.456 L 0.321 0.489 L 0.321 0.8160000000000001 Q 0.321 0.8625 0.3285 0.8835 Q 0.336 0.9045 0.35775 0.912 Q 0.3795 0.9195 0.4275 0.9195 Q 0.4335 0.9195 0.4335 0.9285 Q 0.4335 0.9375 0.4275 0.9375 Q 0.378 0.9375 0.34950000000000003 0.936 L 0.23700000000000002 0.9345 L 0.126 0.936 Q 0.096 0.9375 0.045 0.9375 Q 0.042 0.9375 0.042 0.9285 Q 0.042 0.9195 0.045 0.9195 Q 0.093 0.9195 0.1155 0.912 Q 0.138 0.9045 0.14625 0.88275 Q 0.1545 0.861 0.1545 0.8160000000000001 L 0.1545 0.12149999999999994 Q 0.1545 0.07650000000000001 0.14625 0.055499999999999994 Q 0.138 0.034499999999999975 0.11625 0.026249999999999996 Q 0.0945 0.018000000000000016 0.048 0.018000000000000016 Q 0.043500000000000004 0.018000000000000016 0.043500000000000004 0.009000000000000008 Q 0.043500000000000004 0 0.048 0 L 0.1275 0.0014999999999999458 Q 0.1965 0.0044999999999999485 0.23700000000000002 0.0044999999999999485 Q 0.28200000000000003 0.0044999999999999485 0.35100000000000003 0.0014999999999999458 L 0.4275 0 Q 0.432 0 0.432 0.009000000000000008 Q 0.432 0.018000000000000016 0.4275 0.018000000000000016 Q 0.381 0.018000000000000016 0.35925 0.027000000000000024 Q 0.3375 0.03600000000000003 0.32925 0.05774999999999997 Q 0.321 0.07950000000000002 0.321 0.12449999999999994 L 0.321 0.4425 L 0.603 0.15449999999999997 Q 0.6465 0.11099999999999999 0.6465 0.07499999999999996 Q 0.6465 0.04799999999999993 0.6225 0.03300000000000003 Q 0.5985 0.018000000000000016 0.555 0.018000000000000016 Q 0.5505 0.018000000000000016 0.5505 0.009000000000000008 Q 0.5505 0 0.555 0 L 0.6255000000000001 0.0014999999999999458 Q 0.6915 0.0044999999999999485 0.7485 0.0044999999999999485 Q 0.81 0.0044999999999999485 0.876 0.0014999999999999458 L 0.9435 0 Q 0.9480000000000001 0 0.9480000000000001 0.009000000000000008 Q 0.9480000000000001 0.018000000000000016 0.9435 0.018000000000000016 Q 0.8745 0.018000000000000016 0.792 0.05774999999999997 Q 0.7095 0.09750000000000003 0.642 0.16349999999999998 L 0.47250000000000003 0.33599999999999997 L 0.6945 0.636 Q 0.792 0.7755 0.84075 0.83325 Q 0.8895000000000001 0.891 0.9195 0.90525 Q 0.9495 0.9195 0.996 0.9195 Q 1.0005 0.9195 1.0005 0.9285 M 1.7985439453125 0.26175000000000004 Q 1.7820439453125 0.27 1.7760439453124999 0.29100000000000004 Q 1.7700439453125 0.31199999999999994 1.7700439453125 0.357 L 1.7700439453125 0.8160000000000001 Q 1.7700439453125 0.861 1.7760439453124999 0.88275 Q 1.7820439453125 0.9045 1.7977939453125 0.912 Q 1.8135439453125 0.9195 1.8465439453124999 0.9195 Q 1.8510439453125 0.9195 1.8510439453125 0.9285 Q 1.8510439453125 0.9375 1.8465439453124999 0.9375 L 1.7490439453125002 0.936 L 1.6485439453125 0.9375 Q 1.6305439453125001 0.9375 1.6252939453125 0.933 Q 1.6200439453125002 0.9285 1.6200439453125002 0.909 L 1.6200439453125002 0.828 Q 1.5075439453125 0.9555 1.3530439453125 0.9555 Q 1.2495439453125 0.9555 1.1790439453125 0.9 Q 1.1085439453125001 0.8445 1.1085439453125001 0.729 L 1.1085439453125001 0.357 Q 1.1085439453125001 0.31199999999999994 1.1040439453125 0.29100000000000004 Q 1.0995439453125 0.27 1.0875439453125 0.26175000000000004 Q 1.0755439453125 0.25349999999999995 1.0500439453125001 0.25349999999999995 Q 1.0470439453125 0.25349999999999995 1.0470439453125 0.24449999999999994 Q 1.0470439453125 0.23549999999999993 1.0500439453125001 0.23549999999999993 L 1.1085439453125001 0.237 Q 1.1565439453125 0.24 1.1865439453125 0.24 Q 1.2225439453125 0.24 1.2765439453125 0.237 L 1.3365439453125 0.23549999999999993 Q 1.3395439453125 0.23549999999999993 1.3395439453125 0.24449999999999994 Q 1.3395439453125 0.25349999999999995 1.3365439453125 0.25349999999999995 Q 1.3020439453125001 0.25349999999999995 1.2855439453125 0.26249999999999996 Q 1.2690439453125 0.27149999999999996 1.2630439453125 0.29325 Q 1.2570439453125 0.31499999999999995 1.2570439453125 0.36 L 1.2570439453125 0.6930000000000001 Q 1.2570439453125 0.8069999999999999 1.2997939453125 0.8565 Q 1.3425439453125 0.906 1.4130439453125 0.906 Q 1.5300439453124999 0.906 1.6200439453125002 0.7785 L 1.6200439453125002 0.36 Q 1.6200439453125002 0.31499999999999995 1.6147939453125 0.29325 Q 1.6095439453125 0.27149999999999996 1.5937939453125 0.26249999999999996 Q 1.5780439453125 0.25349999999999995 1.5450439453125 0.25349999999999995 Q 1.5405439453125 0.25349999999999995 1.5405439453125 0.24449999999999994 Q 1.5405439453125 0.23549999999999993 1.5450439453125 0.23549999999999993 L 1.6140439453125 0.237 Q 1.6710439453125 0.24 1.7010439453125001 0.24 Q 1.7280439453125 0.24 1.7820439453125 0.237 L 1.8495439453125 0.23549999999999993 Q 1.8540439453125002 0.23549999999999993 1.8540439453125002 0.24449999999999994 Q 1.8540439453125002 0.25349999999999995 1.8495439453125 0.25349999999999995 Q 1.8150439453125 0.25349999999999995 1.7985439453125 0.26175000000000004 M 3.2475424804687503 0.9285 Q 3.2475424804687503 0.9375 3.24454248046875 0.9375 Q 3.2010424804687503 0.9375 3.17554248046875 0.936 L 3.07204248046875 0.9345 L 2.97304248046875 0.936 Q 2.94754248046875 0.9375 2.90404248046875 0.9375 Q 2.89954248046875 0.9375 2.89954248046875 0.9285 Q 2.89954248046875 0.9195 2.90404248046875 0.9195 Q 2.94604248046875 0.9195 2.9655424804687502 0.912 Q 2.98504248046875 0.9045 2.9925424804687504 0.88275 Q 3.0000424804687498 0.861 3.0000424804687498 0.8160000000000001 L 3.0000424804687498 0.495 Q 3.0000424804687498 0.38249999999999995 2.9685424804687504 0.3255 Q 2.93704248046875 0.26849999999999996 2.86954248046875 0.26849999999999996 Q 2.81404248046875 0.26849999999999996 2.76379248046875 0.3015 Q 2.71354248046875 0.3345 2.67304248046875 0.39449999999999996 Q 2.67754248046875 0.4215 2.67754248046875 0.45 L 2.67754248046875 0.8160000000000001 Q 2.67754248046875 0.861 2.6842924804687502 0.88275 Q 2.69104248046875 0.9045 2.71129248046875 0.912 Q 2.7315424804687503 0.9195 2.77354248046875 0.9195 Q 2.7780424804687502 0.9195 2.7780424804687502 0.9285 Q 2.7780424804687502 0.9375 2.77354248046875 0.9375 Q 2.73004248046875 0.9375 2.70454248046875 0.936 L 2.60254248046875 0.9345 L 2.50354248046875 0.936 Q 2.47804248046875 0.9375 2.43454248046875 0.9375 Q 2.43004248046875 0.9375 2.43004248046875 0.9285 Q 2.43004248046875 0.9195 2.43454248046875 0.9195 Q 2.47654248046875 0.9195 2.49604248046875 0.91125 Q 2.51554248046875 0.903 2.52304248046875 0.882 Q 2.53054248046875 0.861 2.53054248046875 0.8160000000000001 L 2.53054248046875 0.495 Q 2.53054248046875 0.384 2.4975424804687503 0.3255 Q 2.46454248046875 0.267 2.39854248046875 0.267 Q 2.28904248046875 0.267 2.20354248046875 0.39449999999999996 L 2.20354248046875 0.8160000000000001 Q 2.20354248046875 0.861 2.21104248046875 0.88275 Q 2.21854248046875 0.9045 2.23804248046875 0.912 Q 2.25754248046875 0.9195 2.30104248046875 0.9195 Q 2.30404248046875 0.9195 2.30404248046875 0.9285 Q 2.30404248046875 0.9375 2.30104248046875 0.9375 Q 2.25754248046875 0.9375 2.23204248046875 0.936 L 2.12854248046875 0.9345 L 2.02954248046875 0.936 Q 2.00404248046875 0.9375 1.9605424804687501 0.9375 Q 1.95604248046875 0.9375 1.95604248046875 0.9285 Q 1.95604248046875 0.9195 1.9605424804687501 0.9195 Q 2.00254248046875 0.9195 2.02204248046875 0.912 Q 2.04154248046875 0.9045 2.04829248046875 0.88275 Q 2.05504248046875 0.861 2.05504248046875 0.8160000000000001 L 2.05504248046875 0.357 Q 2.05504248046875 0.31199999999999994 2.04829248046875 0.29100000000000004 Q 2.04154248046875 0.27 2.02054248046875 0.26175000000000004 Q 1.99954248046875 0.25349999999999995 1.95604248046875 0.25349999999999995 Q 1.95304248046875 0.25349999999999995 1.95304248046875 0.24449999999999994 Q 1.95304248046875 0.23549999999999993 1.95604248046875 0.23549999999999993 L 2.10754248046875 0.237 L 2.17654248046875 0.23549999999999993 Q 2.19454248046875 0.23549999999999993 2.19904248046875 0.24075000000000002 Q 2.20354248046875 0.246 2.20354248046875 0.264 L 2.20354248046875 0.345 Q 2.30854248046875 0.21599999999999997 2.45554248046875 0.21599999999999997 Q 2.53804248046875 0.21599999999999997 2.5905424804687502 0.25275000000000003 Q 2.64304248046875 0.2895 2.66404248046875 0.35550000000000004 Q 2.77354248046875 0.21599999999999997 2.92504248046875 0.21599999999999997 Q 3.03304248046875 0.21599999999999997 3.09079248046875 0.27825 Q 3.14854248046875 0.3405 3.14854248046875 0.45 L 3.14854248046875 0.8160000000000001 Q 3.14854248046875 0.861 3.1552924804687503 0.88275 Q 3.16204248046875 0.9045 3.18229248046875 0.912 Q 3.2025424804687503 0.9195 3.24454248046875 0.9195 Q 3.2475424804687503 0.9195 3.2475424804687503 0.9285 M 4.026087158203125 0.849 Q 4.030587158203125 0.849 4.032837158203125 0.8565 Q 4.035087158203125 0.864 4.029087158203125 0.8654999999999999 L 3.864087158203125 0.945 Q 3.858087158203125 0.948 3.850587158203125 0.948 Q 3.822087158203125 0.948 3.794337158203125 0.924 Q 3.7665871582031247 0.9 3.751587158203125 0.8475 L 3.6615871582031247 0.9 Q 3.616587158203125 0.927 3.581337158203125 0.9375 Q 3.546087158203125 0.948 3.5085871582031247 0.948 Q 3.4500871582031247 0.948 3.412587158203125 0.9165 Q 3.375087158203125 0.885 3.375087158203125 0.8355 Q 3.375087158203125 0.789 3.405837158203125 0.75375 Q 3.436587158203125 0.7185 3.492087158203125 0.699 L 3.741087158203125 0.6105 L 3.741087158203125 0.43199999999999994 Q 3.741087158203125 0.3405 3.722337158203125 0.2985 Q 3.703587158203125 0.25649999999999995 3.6615871582031247 0.25649999999999995 Q 3.613587158203125 0.25649999999999995 3.586587158203125 0.29999999999999993 Q 3.559587158203125 0.3435 3.5445871582031248 0.41100000000000003 Q 3.528087158203125 0.495 3.457587158203125 0.495 Q 3.420087158203125 0.495 3.398337158203125 0.47625 Q 3.376587158203125 0.4575 3.376587158203125 0.42300000000000004 Q 3.376587158203125 0.378 3.432837158203125 0.33075 Q 3.489087158203125 0.2835 3.570087158203125 0.25275000000000003 Q 3.651087158203125 0.22199999999999998 3.718587158203125 0.22199999999999998 Q 3.798087158203125 0.22199999999999998 3.844587158203125 0.26325 Q 3.891087158203125 0.3045 3.891087158203125 0.387 L 3.891087158203125 0.7065 Q 3.891087158203125 0.774 3.903087158203125 0.8069999999999999 Q 3.915087158203125 0.84 3.933837158203125 0.849 Q 3.9525871582031247 0.858 3.982587158203125 0.858 Q 3.997587158203125 0.858 4.023087158203125 0.8505 L 4.026087158203125 0.849 M 3.745587158203125 0.8175 Q 3.741087158203125 0.7905 3.741087158203125 0.7575000000000001 L 3.741087158203125 0.642 L 3.612087158203125 0.69 Q 3.540087158203125 0.717 3.540087158203125 0.786 Q 3.540087158203125 0.8265 3.559587158203125 0.84975 Q 3.5790871582031247 0.873 3.612087158203125 0.873 Q 3.636087158203125 0.873 3.678087158203125 0.852 L 3.745587158203125 0.8175 M 4.8931142578125 0.9285 Q 4.8931142578125 0.9375 4.8886142578125 0.9375 L 4.642614257812499 0.9375 Q 4.620114257812499 0.9375 4.5623642578125 0.8475 Q 4.5046142578124995 0.7575000000000001 4.4251142578125 0.6 Q 4.3936142578125 0.6045 4.362114257812499 0.6045 L 4.336614257812499 0.6045 L 4.336614257812499 0.8160000000000001 Q 4.336614257812499 0.8625 4.3433642578125 0.8835 Q 4.3501142578125 0.9045 4.3688642578125 0.912 Q 4.3876142578124995 0.9195 4.429614257812499 0.9195 Q 4.432614257812499 0.9195 4.432614257812499 0.9285 Q 4.432614257812499 0.9375 4.429614257812499 0.9375 Q 4.384614257812499 0.9375 4.359114257812499 0.936 L 4.2571142578125 0.9345 L 4.1596142578125 0.936 Q 4.1326142578125 0.9375 4.0846142578124995 0.9375 Q 4.081614257812499 0.9375 4.081614257812499 0.9285 Q 4.081614257812499 0.9195 4.0846142578124995 0.9195 Q 4.126614257812499 0.9195 4.146114257812499 0.912 Q 4.1656142578125 0.9045 4.173114257812499 0.88275 Q 4.1806142578125 0.861 4.1806142578125 0.8160000000000001 L 4.1806142578125 0.357 Q 4.1806142578125 0.31199999999999994 4.173864257812499 0.29100000000000004 Q 4.1671142578125 0.27 4.147614257812499 0.26175000000000004 Q 4.128114257812499 0.25349999999999995 4.0876142578125 0.25349999999999995 Q 4.0831142578124995 0.25349999999999995 4.0831142578124995 0.24449999999999994 Q 4.0831142578124995 0.23549999999999993 4.0876142578125 0.23549999999999993 L 4.1611142578125 0.237 Q 4.221114257812499 0.24 4.2571142578125 0.24 Q 4.285614257812499 0.24 4.3096142578125 0.23849999999999993 Q 4.333614257812499 0.237 4.3516142578125 0.23549999999999993 Q 4.4011142578125 0.23099999999999998 4.4446142578125 0.23099999999999998 Q 4.5616142578125 0.23099999999999998 4.6231142578124995 0.26849999999999996 Q 4.6846142578125 0.30599999999999994 4.6846142578125 0.37649999999999995 Q 4.6846142578125 0.43499999999999994 4.6471142578124995 0.4845 Q 4.6096142578125 0.534 4.5436142578125 0.5655 Q 4.6246142578125 0.702 4.6831142578125 0.7785 Q 4.7416142578125 0.855 4.7896142578125 0.88725 Q 4.8376142578125 0.9195 4.8886142578125 0.9195 Q 4.8931142578125 0.9195 4.8931142578125 0.9285 M 4.3726142578125 0.5760000000000001 Q 4.4581142578124995 0.5760000000000001 4.4911142578125 0.53625 Q 4.524114257812499 0.4965 4.524114257812499 0.41700000000000004 Q 4.524114257812499 0.261 4.410114257812499 0.261 Q 4.3786142578125 0.261 4.3636142578124995 0.26849999999999996 Q 4.3486142578125 0.276 4.3426142578124995 0.29625 Q 4.336614257812499 0.3165 4.336614257812499 0.36 L 4.336614257812499 0.5745 Q 4.3471142578125 0.5760000000000001 4.3726142578125 0.5760000000000001 M 0.28875 1.3695 Q 0.3165 1.4114999999999998 0.357 1.4429999999999998 Q 0.3975 1.4745 0.4665 1.5194999999999999 Q 0.5415 1.5675 0.5865 1.6035 Q 0.6315000000000001 1.6395 0.663 1.69125 Q 0.6945 1.7429999999999999 0.6945 1.8104999999999998 Q 0.6945 1.8884999999999998 0.6525 1.94925 Q 0.6105 2.01 0.53625 2.0437499999999997 Q 0.462 2.0774999999999997 0.3705 2.0774999999999997 Q 0.303 2.0774999999999997 0.2295 2.05875 Q 0.156 2.04 0.1305 2.0175 Q 0.123 2.0115 0.11925000000000001 2.00625 Q 0.1155 2.001 0.1155 1.9889999999999999 L 0.111 1.7505 L 0.111 1.7489999999999999 Q 0.111 1.7429999999999999 0.11850000000000001 1.7422499999999999 Q 0.126 1.7414999999999998 0.1275 1.7474999999999998 Q 0.17250000000000001 1.839 0.20625000000000002 1.896 Q 0.24 1.9529999999999998 0.29175 1.9965 Q 0.3435 2.04 0.40950000000000003 2.04 Q 0.46950000000000003 2.04 0.5085000000000001 2.0077499999999997 Q 0.5475 1.9754999999999998 0.5475 1.8975 Q 0.5475 1.8315 0.51825 1.7819999999999998 Q 0.489 1.7325 0.447 1.698 Q 0.405 1.6635 0.3315 1.6155 Q 0.2595 1.569 0.21975 1.536 Q 0.18 1.503 0.1515 1.4565 Q 0.123 1.41 0.123 1.347 Q 0.123 1.2674999999999998 0.16875 1.2127499999999998 Q 0.2145 1.158 0.28650000000000003 1.1317499999999998 Q 0.3585 1.1054999999999997 0.438 1.1054999999999997 Q 0.4905 1.1054999999999997 0.5445 1.1152499999999999 Q 0.5985 1.125 0.6315000000000001 1.1384999999999998 Q 0.645 1.1444999999999999 0.6495 1.1512499999999999 Q 0.654 1.158 0.654 1.1684999999999999 L 0.654 1.3889999999999998 Q 0.654 1.3935 0.6465 1.3957499999999998 Q 0.639 1.398 0.6375000000000001 1.3935 L 0.6255000000000001 1.3649999999999998 Q 0.588 1.2704999999999997 0.5377500000000001 1.2045 Q 0.4875 1.1384999999999998 0.3975 1.1384999999999998 Q 0.3375 1.1384999999999998 0.29925 1.1729999999999998 Q 0.261 1.2075 0.261 1.2734999999999999 Q 0.261 1.3275 0.28875 1.3695 M 1.58852197265625 1.38375 Q 1.57202197265625 1.392 1.5660219726562499 1.4129999999999998 Q 1.56002197265625 1.4339999999999997 1.56002197265625 1.4789999999999999 L 1.56002197265625 1.938 Q 1.56002197265625 1.9829999999999999 1.5660219726562499 2.00475 Q 1.57202197265625 2.0265 1.58777197265625 2.034 Q 1.60352197265625 2.0415 1.6365219726562499 2.0415 Q 1.64102197265625 2.0415 1.64102197265625 2.0505 Q 1.64102197265625 2.0595 1.6365219726562499 2.0595 L 1.5390219726562502 2.058 L 1.43852197265625 2.0595 Q 1.4205219726562501 2.0595 1.41527197265625 2.0549999999999997 Q 1.4100219726562502 2.0505 1.4100219726562502 2.0309999999999997 L 1.4100219726562502 1.95 Q 1.29752197265625 2.0774999999999997 1.14302197265625 2.0774999999999997 Q 1.03952197265625 2.0774999999999997 0.96902197265625 2.022 Q 0.89852197265625 1.9665 0.89852197265625 1.851 L 0.89852197265625 1.4789999999999999 Q 0.89852197265625 1.4339999999999997 0.89402197265625 1.4129999999999998 Q 0.88952197265625 1.392 0.87752197265625 1.38375 Q 0.86552197265625 1.3754999999999997 0.84002197265625 1.3754999999999997 Q 0.83702197265625 1.3754999999999997 0.83702197265625 1.3664999999999998 Q 0.83702197265625 1.3575 0.84002197265625 1.3575 L 0.89852197265625 1.359 Q 0.94652197265625 1.3619999999999999 0.97652197265625 1.3619999999999999 Q 1.01252197265625 1.3619999999999999 1.06652197265625 1.359 L 1.12652197265625 1.3575 Q 1.12952197265625 1.3575 1.12952197265625 1.3664999999999998 Q 1.12952197265625 1.3754999999999997 1.12652197265625 1.3754999999999997 Q 1.0920219726562501 1.3754999999999997 1.07552197265625 1.3844999999999998 Q 1.05902197265625 1.3935 1.05302197265625 1.41525 Q 1.04702197265625 1.4369999999999998 1.04702197265625 1.4819999999999998 L 1.04702197265625 1.815 Q 1.04702197265625 1.9289999999999998 1.08977197265625 1.9785 Q 1.13252197265625 2.028 1.20302197265625 2.028 Q 1.3200219726562499 2.028 1.4100219726562502 1.9004999999999999 L 1.4100219726562502 1.4819999999999998 Q 1.4100219726562502 1.4369999999999998 1.40477197265625 1.41525 Q 1.39952197265625 1.3935 1.38377197265625 1.3844999999999998 Q 1.36802197265625 1.3754999999999997 1.33502197265625 1.3754999999999997 Q 1.33052197265625 1.3754999999999997 1.33052197265625 1.3664999999999998 Q 1.33052197265625 1.3575 1.33502197265625 1.3575 L 1.40402197265625 1.359 Q 1.46102197265625 1.3619999999999999 1.4910219726562501 1.3619999999999999 Q 1.51802197265625 1.3619999999999999 1.57202197265625 1.359 L 1.63952197265625 1.3575 Q 1.6440219726562502 1.3575 1.6440219726562502 1.3664999999999998 Q 1.6440219726562502 1.3754999999999997 1.63952197265625 1.3754999999999997 Q 1.60502197265625 1.3754999999999997 1.58852197265625 1.38375 M 2.5545205078125 2.0505 Q 2.5545205078125 2.0595 2.5500205078125 2.0595 L 2.3040205078125 2.0595 Q 2.2815205078125 2.0595 2.2237705078125 1.9694999999999998 Q 2.1660205078125 1.8795 2.0865205078125 1.722 Q 2.0550205078125 1.7265 2.0235205078125 1.7265 L 1.9980205078125 1.7265 L 1.9980205078125 1.938 Q 1.9980205078125 1.9845 2.0047705078125 2.0055 Q 2.0115205078125 2.0265 2.0302705078125 2.034 Q 2.0490205078125 2.0415 2.0910205078125 2.0415 Q 2.0940205078125 2.0415 2.0940205078125 2.0505 Q 2.0940205078125 2.0595 2.0910205078125 2.0595 Q 2.0460205078125 2.0595 2.0205205078125 2.058 L 1.9185205078125 2.0564999999999998 L 1.8210205078125 2.058 Q 1.7940205078125 2.0595 1.7460205078125 2.0595 Q 1.7430205078125 2.0595 1.7430205078125 2.0505 Q 1.7430205078125 2.0415 1.7460205078125 2.0415 Q 1.7880205078125 2.0415 1.8075205078125 2.034 Q 1.8270205078125001 2.0265 1.8345205078125 2.00475 Q 1.8420205078125 1.9829999999999999 1.8420205078125 1.938 L 1.8420205078125 1.4789999999999999 Q 1.8420205078125 1.4339999999999997 1.8352705078125 1.4129999999999998 Q 1.8285205078125 1.392 1.8090205078125001 1.38375 Q 1.7895205078125 1.3754999999999997 1.7490205078125 1.3754999999999997 Q 1.7445205078125001 1.3754999999999997 1.7445205078125001 1.3664999999999998 Q 1.7445205078125001 1.3575 1.7490205078125 1.3575 L 1.8225205078125 1.359 Q 1.8825205078125 1.3619999999999999 1.9185205078125 1.3619999999999999 Q 1.9470205078125 1.3619999999999999 1.9710205078125 1.3604999999999998 Q 1.9950205078125 1.359 2.0130205078125 1.3575 Q 2.0625205078125 1.3529999999999998 2.1060205078125 1.3529999999999998 Q 2.2230205078125 1.3529999999999998 2.2845205078125 1.3904999999999998 Q 2.3460205078125 1.428 2.3460205078125 1.4985 Q 2.3460205078125 1.557 2.3085205078125 1.6064999999999998 Q 2.2710205078125 1.656 2.2050205078125 1.6875 Q 2.2860205078125 1.8239999999999998 2.3445205078124998 1.9004999999999999 Q 2.4030205078125 1.9769999999999999 2.4510205078125002 2.0092499999999998 Q 2.4990205078125003 2.0415 2.5500205078125 2.0415 Q 2.5545205078125 2.0415 2.5545205078125 2.0505 M 2.0340205078125 1.698 Q 2.1195205078125 1.698 2.1525205078125 1.6582499999999998 Q 2.1855205078125 1.6184999999999998 2.1855205078125 1.539 Q 2.1855205078125 1.383 2.0715205078125 1.383 Q 2.0400205078125 1.383 2.0250205078125 1.3904999999999998 Q 2.0100205078125 1.398 2.0040205078125 1.41825 Q 1.9980205078125 1.4385 1.9980205078125 1.4819999999999998 L 1.9980205078125 1.6965 Q 2.0085205078125 1.698 2.0340205078125 1.698 M 3.279000732421875 1.3664999999999998 Q 3.279000732421875 1.3754999999999997 3.276000732421875 1.3754999999999997 Q 3.231000732421875 1.3754999999999997 3.194250732421875 1.4114999999999998 Q 3.157500732421875 1.4474999999999998 3.136500732421875 1.5105 L 2.925000732421875 2.058 Q 2.889000732421875 2.157 2.835000732421875 2.2335 Q 2.781000732421875 2.31 2.722500732421875 2.34 Q 2.713500732421875 2.346 2.691750732421875 2.32875 Q 2.670000732421875 2.3114999999999997 2.656500732421875 2.286 Q 2.641500732421875 2.2515 2.641500732421875 2.223 Q 2.641500732421875 2.1975 2.653500732421875 2.1944999999999997 Q 2.737500732421875 2.1825 2.796750732421875 2.15175 Q 2.856000732421875 2.121 2.890500732421875 2.0564999999999998 L 2.6145007324218748 1.4819999999999998 Q 2.584500732421875 1.419 2.562000732421875 1.3972499999999999 Q 2.539500732421875 1.3754999999999997 2.500500732421875 1.3754999999999997 Q 2.496000732421875 1.3754999999999997 2.496000732421875 1.3664999999999998 Q 2.496000732421875 1.3575 2.500500732421875 1.3575 L 2.5665007324218747 1.359 Q 2.623500732421875 1.3619999999999999 2.676000732421875 1.3619999999999999 Q 2.713500732421875 1.3619999999999999 2.770500732421875 1.359 L 2.836500732421875 1.3575 Q 2.841000732421875 1.3575 2.841000732421875 1.3664999999999998 Q 2.841000732421875 1.3754999999999997 2.836500732421875 1.3754999999999997 Q 2.758500732421875 1.3754999999999997 2.758500732421875 1.4204999999999999 Q 2.758500732421875 1.44 2.772000732421875 1.4669999999999999 L 2.964000732421875 1.8569999999999998 L 3.096000732421875 1.5014999999999998 Q 3.108000732421875 1.4685 3.108000732421875 1.4445 Q 3.108000732421875 1.3754999999999997 3.015000732421875 1.3754999999999997 Q 3.010500732421875 1.3754999999999997 3.010500732421875 1.3664999999999998 Q 3.010500732421875 1.3575 3.015000732421875 1.3575 L 3.067500732421875 1.359 Q 3.115500732421875 1.3619999999999999 3.162000732421875 1.3619999999999999 Q 3.187500732421875 1.3619999999999999 3.220500732421875 1.359 L 3.276000732421875 1.3575 Q 3.279000732421875 1.3575 3.279000732421875 1.3664999999999998 M 3.97947216796875 1.9709999999999999 Q 3.98397216796875 1.9709999999999999 3.98622216796875 1.9785 Q 3.98847216796875 1.986 3.98247216796875 1.9874999999999998 L 3.81747216796875 2.0669999999999997 Q 3.81147216796875 2.07 3.80397216796875 2.07 Q 3.77547216796875 2.07 3.74772216796875 2.046 Q 3.7199721679687503 2.022 3.70497216796875 1.9694999999999998 L 3.61497216796875 2.022 Q 3.56997216796875 2.049 3.53472216796875 2.0595 Q 3.49947216796875 2.07 3.4619721679687503 2.07 Q 3.40347216796875 2.07 3.36597216796875 2.0385 Q 3.32847216796875 2.0069999999999997 3.32847216796875 1.9574999999999998 Q 3.32847216796875 1.9109999999999998 3.35922216796875 1.8757499999999998 Q 3.3899721679687502 1.8404999999999998 3.44547216796875 1.821 L 3.69447216796875 1.7325 L 3.69447216796875 1.5539999999999998 Q 3.69447216796875 1.4625 3.67572216796875 1.4204999999999999 Q 3.65697216796875 1.3784999999999998 3.61497216796875 1.3784999999999998 Q 3.56697216796875 1.3784999999999998 3.53997216796875 1.4219999999999997 Q 3.51297216796875 1.4655 3.49797216796875 1.533 Q 3.48147216796875 1.617 3.41097216796875 1.617 Q 3.37347216796875 1.617 3.35172216796875 1.59825 Q 3.32997216796875 1.5795 3.32997216796875 1.545 Q 3.32997216796875 1.5 3.38622216796875 1.45275 Q 3.44247216796875 1.4055 3.52347216796875 1.37475 Q 3.60447216796875 1.3439999999999999 3.6719721679687503 1.3439999999999999 Q 3.75147216796875 1.3439999999999999 3.79797216796875 1.3852499999999999 Q 3.84447216796875 1.4264999999999999 3.84447216796875 1.509 L 3.84447216796875 1.8284999999999998 Q 3.84447216796875 1.896 3.85647216796875 1.9289999999999998 Q 3.86847216796875 1.962 3.88722216796875 1.9709999999999999 Q 3.9059721679687502 1.98 3.93597216796875 1.98 Q 3.95097216796875 1.98 3.9764721679687502 1.9725 L 3.97947216796875 1.9709999999999999 M 3.69897216796875 1.9394999999999998 Q 3.69447216796875 1.9124999999999999 3.69447216796875 1.8795 L 3.69447216796875 1.7639999999999998 L 3.56547216796875 1.8119999999999998 Q 3.49347216796875 1.839 3.49347216796875 1.908 Q 3.49347216796875 1.9485 3.51297216796875 1.97175 Q 3.5324721679687503 1.9949999999999999 3.56547216796875 1.9949999999999999 Q 3.5894721679687502 1.9949999999999999 3.63147216796875 1.974 L 3.69897216796875 1.9394999999999998 M 4.841999267578125 2.0505 Q 4.841999267578125 2.0595 4.838999267578125 2.0595 Q 4.801499267578125 2.0595 4.780499267578125 2.058 L 4.702499267578125 2.0564999999999998 L 4.612499267578126 2.058 Q 4.589999267578126 2.0595 4.552499267578125 2.0595 Q 4.549499267578125 2.0595 4.549499267578125 2.0505 Q 4.549499267578125 2.0415 4.552499267578125 2.0415 Q 4.5869992675781255 2.0415 4.603499267578125 2.0324999999999998 Q 4.619999267578125 2.0235 4.625999267578125 2.00175 Q 4.631999267578125 1.98 4.631999267578125 1.9349999999999998 L 4.631999267578125 1.6364999999999998 Q 4.631999267578125 1.4954999999999998 4.590749267578126 1.44225 Q 4.549499267578125 1.3889999999999998 4.477499267578125 1.3889999999999998 Q 4.417499267578125 1.3889999999999998 4.365749267578125 1.419 Q 4.313999267578125 1.4489999999999998 4.268999267578125 1.5164999999999997 L 4.268999267578125 1.9349999999999998 Q 4.268999267578125 1.98 4.274249267578125 2.00175 Q 4.279499267578125 2.0235 4.295249267578125 2.0324999999999998 Q 4.310999267578125 2.0415 4.343999267578125 2.0415 Q 4.346999267578125 2.0415 4.346999267578125 2.0505 Q 4.346999267578125 2.0595 4.343999267578125 2.0595 Q 4.300499267578125 2.0595 4.274999267578125 2.058 L 4.1879992675781255 2.0564999999999998 L 4.105499267578125 2.058 Q 4.081499267578125 2.0595 4.037999267578125 2.0595 Q 4.034999267578125 2.0595 4.034999267578125 2.0505 Q 4.034999267578125 2.0415 4.037999267578125 2.0415 Q 4.0724992675781255 2.0415 4.089749267578125 2.034 Q 4.106999267578125 2.0265 4.112999267578125 2.00475 Q 4.1189992675781255 1.9829999999999999 4.1189992675781255 1.938 L 4.1189992675781255 1.4789999999999999 Q 4.1189992675781255 1.4339999999999997 4.112999267578125 1.4129999999999998 Q 4.106999267578125 1.392 4.091249267578125 1.38375 Q 4.075499267578125 1.3754999999999997 4.042499267578125 1.3754999999999997 Q 4.037999267578125 1.3754999999999997 4.037999267578125 1.3664999999999998 Q 4.037999267578125 1.3575 4.042499267578125 1.3575 L 4.139999267578125 1.359 L 4.240499267578125 1.3575 Q 4.2584992675781255 1.3575 4.263749267578125 1.36275 Q 4.268999267578125 1.3679999999999999 4.268999267578125 1.386 L 4.268999267578125 1.4685 Q 4.325999267578125 1.4024999999999999 4.391999267578125 1.371 Q 4.457999267578125 1.3395 4.537499267578125 1.3395 Q 4.642499267578125 1.3395 4.711499267578125 1.3987499999999997 Q 4.780499267578125 1.4579999999999997 4.780499267578125 1.6019999999999999 L 4.780499267578125 1.938 Q 4.780499267578125 1.9829999999999999 4.784999267578125 2.00475 Q 4.789499267578125 2.0265 4.801499267578125 2.034 Q 4.813499267578125 2.0415 4.838999267578125 2.0415 Q 4.841999267578125 2.0415 4.841999267578125 2.0505 M 5.135275634765625 1.5412499999999998 Q 5.158525634765625 1.5719999999999998 5.1922756347656245 1.59375 Q 5.226025634765625 1.6155 5.284525634765625 1.6454999999999997 Q 5.352025634765625 1.6814999999999998 5.390275634765625 1.7062499999999998 Q 5.4285256347656246 1.7309999999999999 5.456275634765625 1.77 Q 5.484025634765625 1.809 5.484025634765625 1.863 Q 5.484025634765625 1.9229999999999998 5.448775634765624 1.97175 Q 5.413525634765625 2.0204999999999997 5.352025634765625 2.049 Q 5.290525634765625 2.0774999999999997 5.214025634765624 2.0774999999999997 Q 5.1450256347656245 2.0774999999999997 5.079775634765625 2.06025 Q 5.014525634765625 2.0429999999999997 4.989025634765625 2.022 Q 4.977025634765625 2.0145 4.977025634765625 1.9905 L 4.969525634765625 1.821 Q 4.969525634765625 1.815 4.977025634765625 1.8135 Q 4.984525634765625 1.8119999999999998 4.987525634765625 1.8179999999999998 Q 5.044525634765625 1.9169999999999998 5.103025634765625 1.98 Q 5.161525634765625 2.0429999999999997 5.236525634765625 2.0429999999999997 Q 5.281525634765625 2.0429999999999997 5.311525634765625 2.016 Q 5.341525634765625 1.9889999999999999 5.341525634765625 1.9349999999999998 Q 5.341525634765625 1.8869999999999998 5.316775634765625 1.851 Q 5.292025634765625 1.815 5.256025634765625 1.79025 Q 5.220025634765625 1.7654999999999998 5.160025634765625 1.7325 Q 5.071525634765625 1.6844999999999999 5.025025634765625 1.6417499999999998 Q 4.978525634765625 1.5989999999999998 4.978525634765625 1.5299999999999998 Q 4.978525634765625 1.4429999999999998 5.055025634765625 1.3912499999999999 Q 5.131525634765625 1.3395 5.2395256347656245 1.3395 Q 5.2875256347656245 1.3395 5.340025634765625 1.3499999999999999 Q 5.392525634765625 1.3604999999999998 5.424025634765625 1.3739999999999999 Q 5.437525634765625 1.3784999999999998 5.442025634765625 1.3852499999999999 Q 5.446525634765625 1.392 5.446525634765625 1.404 L 5.446525634765625 1.5465 Q 5.446525634765625 1.5509999999999997 5.439025634765625 1.5532499999999998 Q 5.431525634765625 1.5554999999999999 5.4285256347656246 1.5509999999999997 Q 5.400025634765625 1.4909999999999999 5.349025634765625 1.4324999999999999 Q 5.298025634765625 1.3739999999999999 5.214025634765624 1.3739999999999999 Q 5.163025634765625 1.3739999999999999 5.137525634765625 1.4002499999999998 Q 5.112025634765625 1.4264999999999999 5.112025634765625 1.4685 Q 5.112025634765625 1.5105 5.135275634765625 1.5412499999999998 M 6.451521240234374 2.0505 Q 6.451521240234374 2.0595 6.447021240234374 2.0595 Q 6.400521240234374 2.0595 6.375021240234375 2.058 L 6.276021240234375 2.0564999999999998 L 6.175521240234374 2.058 Q 6.150021240234374 2.0595 6.103521240234374 2.0595 Q 6.099021240234374 2.0595 6.099021240234374 2.0505 Q 6.099021240234374 2.0415 6.103521240234374 2.0415 Q 6.145521240234374 2.0415 6.165021240234375 2.034 Q 6.184521240234375 2.0265 6.192021240234374 2.00475 Q 6.1995212402343745 1.9829999999999999 6.1995212402343745 1.938 L 6.1995212402343745 1.7249999999999999 L 5.838021240234374 1.7249999999999999 L 5.838021240234374 1.938 Q 5.838021240234374 1.9829999999999999 5.845521240234374 2.004 Q 5.853021240234375 2.025 5.8732712402343745 2.03325 Q 5.893521240234374 2.0415 5.935521240234374 2.0415 Q 5.938521240234374 2.0415 5.938521240234374 2.0505 Q 5.938521240234374 2.0595 5.935521240234374 2.0595 Q 5.889021240234374 2.0595 5.863521240234374 2.058 L 5.763021240234375 2.0564999999999998 L 5.665521240234375 2.058 Q 5.6385212402343745 2.0595 5.5905212402343745 2.0595 Q 5.587521240234374 2.0595 5.587521240234374 2.0505 Q 5.587521240234374 2.0415 5.5905212402343745 2.0415 Q 5.634021240234374 2.0415 5.654271240234374 2.034 Q 5.674521240234375 2.0265 5.682021240234374 2.00475 Q 5.689521240234375 1.9829999999999999 5.689521240234375 1.938 L 5.689521240234375 1.4789999999999999 Q 5.689521240234375 1.4339999999999997 5.682021240234374 1.4129999999999998 Q 5.674521240234375 1.392 5.654271240234374 1.38375 Q 5.634021240234374 1.3754999999999997 5.593521240234375 1.3754999999999997 Q 5.589021240234374 1.3754999999999997 5.589021240234374 1.3664999999999998 Q 5.589021240234374 1.3575 5.593521240234375 1.3575 L 5.665521240234375 1.359 Q 5.725521240234374 1.3619999999999999 5.763021240234375 1.3619999999999999 Q 5.8035212402343745 1.3619999999999999 5.863521240234374 1.359 L 5.935521240234374 1.3575 Q 5.938521240234374 1.3575 5.938521240234374 1.3664999999999998 Q 5.938521240234374 1.3754999999999997 5.935521240234374 1.3754999999999997 Q 5.875521240234375 1.3754999999999997 5.856771240234375 1.3964999999999999 Q 5.838021240234374 1.4175 5.838021240234374 1.4819999999999998 L 5.838021240234374 1.686 L 6.1995212402343745 1.686 L 6.1995212402343745 1.4819999999999998 Q 6.1995212402343745 1.4369999999999998 6.192021240234374 1.41525 Q 6.184521240234375 1.3935 6.165021240234375 1.3844999999999998 Q 6.145521240234374 1.3754999999999997 6.103521240234374 1.3754999999999997 Q 6.099021240234374 1.3754999999999997 6.099021240234374 1.3664999999999998 Q 6.099021240234374 1.3575 6.103521240234374 1.3575 L 6.175521240234374 1.359 Q 6.235521240234375 1.3619999999999999 6.276021240234375 1.3619999999999999 Q 6.312021240234374 1.3619999999999999 6.375021240234375 1.359 L 6.447021240234374 1.3575 Q 6.451521240234374 1.3575 6.451521240234374 1.3664999999999998 Q 6.451521240234374 1.3754999999999997 6.447021240234374 1.3754999999999997 Q 6.405021240234374 1.3754999999999997 6.384771240234374 1.38375 Q 6.3645212402343745 1.392 6.357021240234374 1.4129999999999998 Q 6.349521240234375 1.4339999999999997 6.349521240234375 1.4789999999999999 L 6.349521240234375 1.938 Q 6.349521240234375 1.9829999999999999 6.357021240234374 2.00475 Q 6.3645212402343745 2.0265 6.384021240234374 2.034 Q 6.403521240234374 2.0415 6.447021240234374 2.0415 Q 6.451521240234374 2.0415 6.451521240234374 2.0505" fill="#ffffff" fill-rule="nonzero"></path></g><g><path d=" M 0.15375 3.1401375 Q 0.15825 3.1510124999999998 0.171375 3.1547625 Q 0.1845 3.1585125 0.213 3.1585125 Q 0.21525 3.1585125 0.21525 3.1630125 Q 0.21525 3.1675125 0.213 3.1675125 Q 0.1905 3.1675125 0.177 3.1667625 L 0.12375 3.1660125 L 0.07200000000000001 3.1667625 Q 0.0585 3.1675125 0.035250000000000004 3.1675125 Q 0.033 3.1675125 0.033 3.1630125 Q 0.033 3.1585125 0.035250000000000004 3.1585125 Q 0.06375 3.1585125 0.076875 3.1547625 Q 0.09 3.1510124999999998 0.094875 3.1401375 Q 0.09975 3.1292625 0.09975 3.1067625 L 0.09975 2.7595125 Q 0.09975 2.7370125 0.094875 2.7265125 Q 0.09 2.7160124999999997 0.076875 2.7118875 Q 0.06375 2.7077625 0.035250000000000004 2.7077625 Q 0.033 2.7077625 0.033 2.7032625 Q 0.033 2.6987625 0.035250000000000004 2.6987625 L 0.07200000000000001 2.6995125 Q 0.10350000000000001 2.7010125 0.12375 2.7010125 Q 0.14625 2.7010125 0.17775 2.6995125 L 0.213 2.6987625 Q 0.21525 2.6987625 0.21525 2.7032625 Q 0.21525 2.7077625 0.213 2.7077625 Q 0.18525 2.7077625 0.172125 2.7122625 Q 0.159 2.7167624999999997 0.154125 2.7276375 Q 0.14925 2.7385125 0.14925 2.7610125 L 0.14925 3.1067625 Q 0.14925 3.1292625 0.15375 3.1401375 M 0.9157276611328125 3.1630125 Q 0.9157276611328125 3.1675125 0.9142276611328126 3.1675125 Q 0.8939776611328125 3.1675125 0.8827276611328125 3.1667625 L 0.8354776611328125 3.1660125 L 0.7897276611328126 3.1667625 Q 0.7777276611328126 3.1675125 0.7574776611328125 3.1675125 Q 0.7559776611328125 3.1675125 0.7559776611328125 3.1630125 Q 0.7559776611328125 3.1585125 0.7574776611328125 3.1585125 Q 0.7822276611328125 3.1585125 0.7938526611328125 3.1547625 Q 0.8054776611328125 3.1510124999999998 0.8096026611328124 3.1401375 Q 0.8137276611328126 3.1292625 0.8137276611328126 3.1067625 L 0.8137276611328126 2.9462625 Q 0.8137276611328126 2.8862625 0.7934776611328125 2.8570124999999997 Q 0.7732276611328126 2.8277625 0.7319776611328126 2.8277625 Q 0.6689776611328125 2.8277625 0.6187276611328125 2.8892625 Q 0.6217276611328125 2.9035124999999997 0.6217276611328125 2.9237625 L 0.6217276611328125 3.1067625 Q 0.6217276611328125 3.1292625 0.6258526611328126 3.1401375 Q 0.6299776611328125 3.1510124999999998 0.6412276611328125 3.1547625 Q 0.6524776611328125 3.1585125 0.6772276611328125 3.1585125 Q 0.6794776611328125 3.1585125 0.6794776611328125 3.1630125 Q 0.6794776611328125 3.1675125 0.6772276611328125 3.1675125 Q 0.6577276611328124 3.1675125 0.6464776611328125 3.1667625 L 0.5984776611328125 3.1660125 L 0.5527276611328125 3.1667625 Q 0.5414776611328125 3.1675125 0.5212276611328125 3.1675125 Q 0.5197276611328125 3.1675125 0.5197276611328125 3.1630125 Q 0.5197276611328125 3.1585125 0.5212276611328125 3.1585125 Q 0.5459776611328124 3.1585125 0.5576026611328125 3.1547625 Q 0.5692276611328125 3.1510124999999998 0.5733526611328126 3.1401375 Q 0.5774776611328125 3.1292625 0.5774776611328125 3.1067625 L 0.5774776611328125 2.9462625 Q 0.5774776611328125 2.8862625 0.5572276611328125 2.8570124999999997 Q 0.5369776611328125 2.8277625 0.4957276611328125 2.8277625 Q 0.4349776611328125 2.8277625 0.38472766113281254 2.8862625 L 0.38472766113281254 3.1067625 Q 0.38472766113281254 3.1300125 0.38885266113281247 3.1405125 Q 0.3929776611328125 3.1510124999999998 0.4042276611328125 3.1547625 Q 0.4154776611328125 3.1585125 0.4409776611328125 3.1585125 Q 0.4424776611328125 3.1585125 0.4424776611328125 3.1630125 Q 0.4424776611328125 3.1675125 0.4409776611328125 3.1675125 Q 0.4207276611328125 3.1675125 0.4094776611328125 3.1667625 L 0.3614776611328125 3.1660125 L 0.3164776611328125 3.1667625 Q 0.3044776611328125 3.1675125 0.28497766113281253 3.1675125 Q 0.2827276611328125 3.1675125 0.2827276611328125 3.1630125 Q 0.2827276611328125 3.1585125 0.28497766113281253 3.1585125 Q 0.3089776611328125 3.1585125 0.32022766113281254 3.1547625 Q 0.3314776611328125 3.1510124999999998 0.3356026611328125 3.1401375 Q 0.3397276611328125 3.1292625 0.3397276611328125 3.1067625 L 0.3397276611328125 2.8772625 Q 0.3397276611328125 2.8547625 0.3356026611328125 2.8442625 Q 0.3314776611328125 2.8337624999999997 0.3194776611328125 2.8296375 Q 0.3074776611328125 2.8255125 0.2827276611328125 2.8255125 Q 0.2812276611328125 2.8255125 0.2812276611328125 2.8210125 Q 0.2812276611328125 2.8165125 0.2827276611328125 2.8165125 L 0.3374776611328125 2.8172625 L 0.3704776611328125 2.8165125 Q 0.3802276611328125 2.8165125 0.3824776611328125 2.8191375 Q 0.38472766113281254 2.8217625 0.38472766113281254 2.8307625 L 0.38472766113281254 2.8735125 Q 0.41697766113281254 2.8390125 0.4488526611328125 2.8228874999999998 Q 0.4807276611328125 2.8067625 0.5159776611328125 2.8067625 Q 0.5549776611328125 2.8067625 0.5808526611328125 2.8247625 Q 0.6067276611328125 2.8427625 0.6164776611328124 2.8787625 Q 0.6502276611328125 2.8405125 0.6832276611328125 2.8236375 Q 0.7162276611328124 2.8067625 0.7522276611328125 2.8067625 Q 0.8024776611328126 2.8067625 0.8302276611328125 2.8363875 Q 0.8579776611328125 2.8660125 0.8579776611328125 2.9237625 L 0.8579776611328125 3.1067625 Q 0.8579776611328125 3.1292625 0.8621026611328124 3.1401375 Q 0.8662276611328126 3.1510124999999998 0.8778526611328126 3.1547625 Q 0.8894776611328126 3.1585125 0.9142276611328126 3.1585125 Q 0.9157276611328125 3.1585125 0.9157276611328125 3.1630125 M 1.28621044921875 3.1262625 Q 1.2892104492187502 3.1262625 1.2903354492187502 3.1296375 Q 1.29146044921875 3.1330125 1.2884604492187501 3.1345125 L 1.20971044921875 3.1720125 Q 1.2067104492187501 3.1735124999999997 1.20446044921875 3.1735124999999997 Q 1.19246044921875 3.1735124999999997 1.18083544921875 3.1588875 Q 1.16921044921875 3.1442625 1.1662104492187502 3.1187625 L 1.11671044921875 3.1465125 Q 1.0904604492187502 3.1607625 1.0732104492187502 3.1667625 Q 1.0559604492187502 3.1727625 1.04096044921875 3.1727625 Q 1.0147104492187502 3.1727625 0.9967104492187502 3.1570125 Q 0.9787104492187502 3.1412625 0.9787104492187502 3.1210125 Q 0.9787104492187502 3.0925124999999998 0.9974604492187501 3.0752625 Q 1.01621044921875 3.0580125 1.0672104492187502 3.0392625 L 1.1654604492187501 3.0032625 L 1.1654604492187501 2.9147625 Q 1.1654604492187501 2.8690125 1.15233544921875 2.8480125 Q 1.13921044921875 2.8270125 1.11146044921875 2.8270125 Q 1.0769604492187501 2.8270125 1.0608354492187502 2.8483875 Q 1.0447104492187502 2.8697624999999998 1.03571044921875 2.9042624999999997 Q 1.0319604492187502 2.9170125 1.0255854492187502 2.9248875 Q 1.0192104492187501 2.9327625 1.00646044921875 2.9327625 Q 0.9944604492187501 2.9327625 0.9869604492187501 2.9256375 Q 0.9794604492187501 2.9185125 0.9794604492187501 2.9080125 Q 0.9794604492187501 2.8892625 1.00608544921875 2.8660125 Q 1.0327104492187502 2.8427625 1.07096044921875 2.8262625 Q 1.1092104492187502 2.8097624999999997 1.13996044921875 2.8097624999999997 Q 1.1722104492187502 2.8097624999999997 1.1917104492187502 2.8303875 Q 1.21121044921875 2.8510125 1.21121044921875 2.8922625 L 1.21121044921875 3.0797624999999997 Q 1.21121044921875 3.1360125 1.2479604492187502 3.1360125 Q 1.26296044921875 3.1360125 1.2847104492187502 3.1262625 L 1.28621044921875 3.1262625 M 1.1654604492187501 3.1082625 L 1.1654604492187501 3.1052625 L 1.1654604492187501 3.0130125 L 1.0829604492187501 3.0452624999999998 Q 1.0552104492187502 3.0557625 1.0443354492187502 3.0692625 Q 1.03346044921875 3.0827625 1.03346044921875 3.1015125 Q 1.03346044921875 3.1202625 1.04546044921875 3.1330125 Q 1.05746044921875 3.1457625 1.0739604492187502 3.1457625 Q 1.09196044921875 3.1457625 1.1137104492187502 3.1345125 L 1.1654604492187501 3.1082625 M 1.4148559570312502 3.1513875 Q 1.37023095703125 3.1262625 1.34698095703125 3.0850125 Q 1.32373095703125 3.0437625 1.32373095703125 2.9980124999999997 Q 1.32373095703125 2.9395124999999998 1.3499809570312502 2.8963875 Q 1.37623095703125 2.8532625 1.4249809570312502 2.8303875 Q 1.4737309570312502 2.8075125 1.5397309570312503 2.8075125 Q 1.5712309570312502 2.8075125 1.5997309570312501 2.8135125 Q 1.62823095703125 2.8195125 1.6477309570312502 2.8307625 Q 1.6522309570312501 2.8330124999999997 1.6533559570312502 2.8367625 Q 1.6544809570312502 2.8405125 1.6552309570312502 2.8472625 L 1.66273095703125 2.9177625 Q 1.66273095703125 2.9200125 1.6586059570312501 2.9203875 Q 1.6544809570312502 2.9207625 1.6537309570312502 2.9185125 Q 1.6372309570312502 2.8667625 1.60423095703125 2.8427625 Q 1.5712309570312502 2.8187625 1.5217309570312503 2.8187625 Q 1.4557309570312502 2.8187625 1.4163559570312503 2.8641375 Q 1.3769809570312501 2.9095125 1.3769809570312501 2.9882625 Q 1.3769809570312501 3.0400125 1.3964809570312502 3.0801374999999998 Q 1.4159809570312503 3.1202625 1.45235595703125 3.1427625 Q 1.4887309570312501 3.1652625 1.5374809570312502 3.1652625 Q 1.5749809570312503 3.1652625 1.59260595703125 3.1585125 Q 1.6102309570312503 3.1517625 1.61623095703125 3.1326375 Q 1.6222309570312503 3.1135125 1.6222309570312503 3.0730125 Q 1.6222309570312503 3.0535125 1.6181059570312502 3.0456374999999998 Q 1.6139809570312502 3.0377625 1.6008559570312502 3.0351375 Q 1.5877309570312501 3.0325125 1.5554809570312502 3.0325125 Q 1.5509809570312503 3.0325125 1.5509809570312503 3.0265125 Q 1.5509809570312503 3.0242625 1.5521059570312503 3.0223875 Q 1.5532309570312501 3.0205125 1.5547309570312502 3.0205125 Q 1.5937309570312501 3.0235125 1.6334809570312503 3.0235125 Q 1.65148095703125 3.0235125 1.6934809570312501 3.0220124999999998 Q 1.6949809570312502 3.0220124999999998 1.6961059570312502 3.0238875 Q 1.6972309570312503 3.0257625 1.6972309570312503 3.0272625 Q 1.6972309570312503 3.0325125 1.6934809570312501 3.0325125 Q 1.6784809570312502 3.0317625 1.6724809570312502 3.0347625 Q 1.6664809570312502 3.0377625 1.6649809570312502 3.0471375 Q 1.66348095703125 3.0565124999999997 1.66348095703125 3.0805124999999998 Q 1.66348095703125 3.1142625 1.6649809570312502 3.1277625 Q 1.6664809570312502 3.1412625 1.6664809570312502 3.1465125 Q 1.6664809570312502 3.1510124999999998 1.6653559570312502 3.1521375 Q 1.6642309570312501 3.1532625 1.6582309570312501 3.1555125 Q 1.6087309570312502 3.1765125 1.5194809570312502 3.1765125 Q 1.4594809570312501 3.1765125 1.4148559570312502 3.1513875 M 1.8596110839843751 3.1405125 Q 1.8637360839843753 3.1510124999999998 1.8749860839843753 3.1547625 Q 1.8862360839843753 3.1585125 1.9117360839843753 3.1585125 Q 1.9132360839843752 3.1585125 1.9132360839843752 3.1630125 Q 1.9132360839843752 3.1675125 1.9117360839843753 3.1675125 Q 1.8907360839843752 3.1675125 1.8787360839843752 3.1667625 L 1.8314860839843752 3.1660125 L 1.7872360839843753 3.1667625 Q 1.7744860839843752 3.1675125 1.7527360839843753 3.1675125 Q 1.7512360839843752 3.1675125 1.7512360839843752 3.1630125 Q 1.7512360839843752 3.1585125 1.7527360839843753 3.1585125 Q 1.7782360839843752 3.1585125 1.7894860839843751 3.1547625 Q 1.8007360839843753 3.1510124999999998 1.8048610839843753 3.1405125 Q 1.8089860839843752 3.1300125 1.8089860839843752 3.1067625 L 1.8089860839843752 2.8772625 Q 1.8089860839843752 2.8547625 1.8048610839843753 2.8442625 Q 1.8007360839843753 2.8337624999999997 1.7891110839843753 2.8296375 Q 1.7774860839843754 2.8255125 1.7527360839843753 2.8255125 Q 1.7512360839843752 2.8255125 1.7512360839843752 2.8210125 Q 1.7512360839843752 2.8165125 1.7527360839843753 2.8165125 L 1.7872360839843753 2.8172625 Q 1.8142360839843752 2.8187625 1.8314860839843752 2.8187625 Q 1.8509860839843753 2.8187625 1.8794860839843752 2.8172625 L 1.9117360839843753 2.8165125 Q 1.9132360839843752 2.8165125 1.9132360839843752 2.8210125 Q 1.9132360839843752 2.8255125 1.9117360839843753 2.8255125 Q 1.8877360839843753 2.8255125 1.8757360839843753 2.8300125 Q 1.8637360839843753 2.8345124999999998 1.8596110839843751 2.8453875 Q 1.8554860839843752 2.8562624999999997 1.8554860839843752 2.8787625 L 1.8554860839843752 3.1067625 Q 1.8554860839843752 3.1300125 1.8596110839843751 3.1405125 M 2.389508422851563 3.1630125 Q 2.389508422851563 3.1675125 2.388008422851563 3.1675125 Q 2.369258422851563 3.1675125 2.358758422851563 3.1667625 L 2.319758422851563 3.1660125 L 2.272508422851563 3.1667625 Q 2.261258422851563 3.1675125 2.2425084228515626 3.1675125 Q 2.241008422851563 3.1675125 2.241008422851563 3.1630125 Q 2.241008422851563 3.1585125 2.2425084228515626 3.1585125 Q 2.2665084228515626 3.1585125 2.278133422851563 3.1540125 Q 2.2897584228515626 3.1495125 2.2938834228515628 3.1386374999999997 Q 2.298008422851563 3.1277625 2.298008422851563 3.1052625 L 2.298008422851563 2.9560125 Q 2.298008422851563 2.8840125 2.272883422851563 2.8558875 Q 2.247758422851563 2.8277625 2.200508422851563 2.8277625 Q 2.166758422851563 2.8277625 2.1378834228515626 2.8416375 Q 2.109008422851563 2.8555125 2.076758422851563 2.8900125 L 2.076758422851563 3.1052625 Q 2.076758422851563 3.1277625 2.0808834228515627 3.1386374999999997 Q 2.085008422851563 3.1495125 2.096258422851563 3.1540125 Q 2.107508422851563 3.1585125 2.130758422851563 3.1585125 Q 2.133008422851563 3.1585125 2.133008422851563 3.1630125 Q 2.133008422851563 3.1675125 2.130758422851563 3.1675125 Q 2.110508422851563 3.1675125 2.098508422851563 3.1667625 L 2.052758422851563 3.1660125 L 2.0085084228515626 3.1667625 Q 1.9965084228515628 3.1675125 1.975508422851563 3.1675125 Q 1.9740084228515629 3.1675125 1.9740084228515629 3.1630125 Q 1.9740084228515629 3.1585125 1.975508422851563 3.1585125 Q 1.9995084228515627 3.1585125 2.0111334228515627 3.1543875 Q 2.0227584228515627 3.1502624999999997 2.027258422851563 3.1397625 Q 2.0317584228515626 3.1292625 2.0317584228515626 3.1067625 L 2.0317584228515626 2.8772625 Q 2.0317584228515626 2.8547625 2.027633422851563 2.8442625 Q 2.0235084228515627 2.8337624999999997 2.0122584228515628 2.8296375 Q 2.0010084228515628 2.8255125 1.9777584228515628 2.8255125 Q 1.975508422851563 2.8255125 1.975508422851563 2.8210125 Q 1.975508422851563 2.8165125 1.9777584228515628 2.8165125 L 2.026508422851563 2.8172625 L 2.063258422851563 2.8165125 Q 2.072258422851563 2.8165125 2.074508422851563 2.8191375 Q 2.076758422851563 2.8217625 2.076758422851563 2.8307625 L 2.076758422851563 2.8750125 Q 2.112008422851563 2.8397625 2.146508422851563 2.8236375 Q 2.181008422851563 2.8075125 2.2200084228515626 2.8075125 Q 2.275508422851563 2.8075125 2.309258422851563 2.8378875 Q 2.343008422851563 2.8682625 2.343008422851563 2.9312625 L 2.343008422851563 3.1067625 Q 2.343008422851563 3.1292625 2.346383422851563 3.1401375 Q 2.3497584228515627 3.1510124999999998 2.3591334228515626 3.1547625 Q 2.368508422851563 3.1585125 2.388008422851563 3.1585125 Q 2.389508422851563 3.1585125 2.389508422851563 3.1630125 M 2.7599970703125005 3.1262625 Q 2.7629970703125 3.1262625 2.7641220703125002 3.1296375 Q 2.7652470703125003 3.1330125 2.7622470703125 3.1345125 L 2.6834970703125003 3.1720125 Q 2.6804970703125006 3.1735124999999997 2.6782470703125005 3.1735124999999997 Q 2.6662470703125005 3.1735124999999997 2.6546220703125005 3.1588875 Q 2.6429970703125005 3.1442625 2.6399970703125004 3.1187625 L 2.5904970703125003 3.1465125 Q 2.5642470703125 3.1607625 2.5469970703125004 3.1667625 Q 2.5297470703125002 3.1727625 2.5147470703125006 3.1727625 Q 2.4884970703125004 3.1727625 2.4704970703125 3.1570125 Q 2.4524970703125004 3.1412625 2.4524970703125004 3.1210125 Q 2.4524970703125004 3.0925124999999998 2.4712470703125002 3.0752625 Q 2.4899970703125005 3.0580125 2.5409970703125 3.0392625 L 2.6392470703125004 3.0032625 L 2.6392470703125004 2.9147625 Q 2.6392470703125004 2.8690125 2.6261220703125003 2.8480125 Q 2.6129970703125003 2.8270125 2.5852470703125006 2.8270125 Q 2.5507470703125 2.8270125 2.5346220703125004 2.8483875 Q 2.5184970703125003 2.8697624999999998 2.5094970703125004 2.9042624999999997 Q 2.5057470703125 2.9170125 2.4993720703125004 2.9248875 Q 2.4929970703125 2.9327625 2.4802470703125006 2.9327625 Q 2.4682470703125006 2.9327625 2.4607470703125003 2.9256375 Q 2.4532470703125004 2.9185125 2.4532470703125004 2.9080125 Q 2.4532470703125004 2.8892625 2.4798720703125006 2.8660125 Q 2.5064970703125002 2.8427625 2.5447470703125004 2.8262625 Q 2.5829970703125005 2.8097624999999997 2.6137470703125003 2.8097624999999997 Q 2.6459970703125 2.8097624999999997 2.6654970703125005 2.8303875 Q 2.6849970703125003 2.8510125 2.6849970703125003 2.8922625 L 2.6849970703125003 3.0797624999999997 Q 2.6849970703125003 3.1360125 2.7217470703125004 3.1360125 Q 2.7367470703125005 3.1360125 2.7584970703125005 3.1262625 L 2.7599970703125005 3.1262625 M 2.6392470703125004 3.1082625 L 2.6392470703125004 3.1052625 L 2.6392470703125004 3.0130125 L 2.5567470703125004 3.0452624999999998 Q 2.5289970703125 3.0557625 2.5181220703125002 3.0692625 Q 2.5072470703125003 3.0827625 2.5072470703125003 3.1015125 Q 2.5072470703125003 3.1202625 2.5192470703125003 3.1330125 Q 2.5312470703125003 3.1457625 2.5477470703125005 3.1457625 Q 2.5657470703125003 3.1457625 2.5874970703125 3.1345125 L 2.6392470703125004 3.1082625 M 3.037517578125 3.1307625 Q 3.039767578125 3.1307625 3.0412675781250003 3.1341375 Q 3.0427675781250003 3.1375125 3.0405175781250002 3.1390124999999998 Q 3.0097675781250004 3.1592625 2.9868925781250004 3.1678875 Q 2.9640175781250004 3.1765125 2.9385175781250004 3.1765125 Q 2.895767578125 3.1765125 2.8676425781250003 3.1525125 Q 2.839517578125 3.1285125 2.839517578125 3.0730125 L 2.839517578125 2.8765125 Q 2.839517578125 2.8577624999999998 2.836892578125 2.8498875 Q 2.8342675781250004 2.8420125 2.826392578125 2.8393875 Q 2.8185175781250003 2.8367625 2.800517578125 2.8367625 Q 2.7982675781250004 2.8367625 2.7982675781250004 2.8318875 Q 2.7982675781250004 2.8270125 2.800517578125 2.8270125 Q 2.8305175781250003 2.8270125 2.851142578125 2.8112624999999998 Q 2.871767578125 2.7955125 2.873267578125 2.7707625 Q 2.873267578125 2.7685125 2.8785175781250003 2.7685125 Q 2.884517578125 2.7685125 2.884517578125 2.7707625 L 2.884517578125 2.8255125 Q 2.946017578125 2.8247625 3.0202675781250004 2.8187625 Q 3.022517578125 2.8187625 3.024017578125 2.8232625 Q 3.025517578125 2.8277625 3.025517578125 2.8352625 Q 3.025517578125 2.8420125 3.022892578125 2.8495125 Q 3.0202675781250004 2.8570124999999997 3.0180175781250003 2.8562624999999997 Q 2.9587675781250002 2.8405125 2.884517578125 2.8390125 L 2.884517578125 3.0490125 Q 2.884517578125 3.1015125 2.9047675781250004 3.1266374999999997 Q 2.9250175781250003 3.1517625 2.966267578125 3.1517625 Q 3.0060175781250003 3.1517625 3.036017578125 3.1315125 L 3.037517578125 3.1307625 M 3.196892578125 3.1405125 Q 3.201017578125 3.1510124999999998 3.212267578125 3.1547625 Q 3.223517578125 3.1585125 3.249017578125 3.1585125 Q 3.250517578125 3.1585125 3.250517578125 3.1630125 Q 3.250517578125 3.1675125 3.249017578125 3.1675125 Q 3.2280175781250002 3.1675125 3.216017578125 3.1667625 L 3.168767578125 3.1660125 L 3.124517578125 3.1667625 Q 3.1117675781250003 3.1675125 3.090017578125 3.1675125 Q 3.0885175781250003 3.1675125 3.0885175781250003 3.1630125 Q 3.0885175781250003 3.1585125 3.090017578125 3.1585125 Q 3.115517578125 3.1585125 3.126767578125 3.1547625 Q 3.138017578125 3.1510124999999998 3.142142578125 3.1405125 Q 3.1462675781250002 3.1300125 3.1462675781250002 3.1067625 L 3.1462675781250002 2.8772625 Q 3.1462675781250002 2.8547625 3.142142578125 2.8442625 Q 3.138017578125 2.8337624999999997 3.126392578125 2.8296375 Q 3.114767578125 2.8255125 3.090017578125 2.8255125 Q 3.0885175781250003 2.8255125 3.0885175781250003 2.8210125 Q 3.0885175781250003 2.8165125 3.090017578125 2.8165125 L 3.124517578125 2.8172625 Q 3.151517578125 2.8187625 3.168767578125 2.8187625 Q 3.188267578125 2.8187625 3.2167675781250002 2.8172625 L 3.249017578125 2.8165125 Q 3.250517578125 2.8165125 3.250517578125 2.8210125 Q 3.250517578125 2.8255125 3.249017578125 2.8255125 Q 3.225017578125 2.8255125 3.213017578125 2.8300125 Q 3.201017578125 2.8345124999999998 3.196892578125 2.8453875 Q 3.1927675781250002 2.8562624999999997 3.1927675781250002 2.8787625 L 3.1927675781250002 3.1067625 Q 3.1927675781250002 3.1300125 3.196892578125 3.1405125 M 3.3994149169921872 3.1517625 Q 3.3585399169921875 3.1270124999999998 3.3360399169921875 3.0850125 Q 3.3135399169921875 3.0430125 3.3135399169921875 2.9942625 Q 3.3135399169921875 2.9357625 3.3439149169921873 2.8933875 Q 3.3742899169921876 2.8510125 3.421164916992187 2.8292625 Q 3.468039916992187 2.8075125 3.5167899169921872 2.8075125 Q 3.5692899169921875 2.8075125 3.609414916992187 2.8333874999999997 Q 3.6495399169921874 2.8592625 3.6709149169921873 2.9005125 Q 3.6922899169921872 2.9417625 3.6922899169921872 2.9867624999999998 Q 3.6922899169921872 3.0370125 3.6652899169921875 3.0808875 Q 3.6382899169921874 3.1247625 3.5925399169921874 3.1506374999999998 Q 3.5467899169921875 3.1765125 3.492789916992187 3.1765125 Q 3.4402899169921874 3.1765125 3.3994149169921872 3.1517625 M 3.6056649169921875 3.1195125 Q 3.6405399169921875 3.0782625 3.6405399169921875 3.0055125 Q 3.6405399169921875 2.9552625 3.6229149169921873 2.9140125 Q 3.6052899169921875 2.8727625 3.5715399169921875 2.8480125 Q 3.5377899169921876 2.8232625 3.4912899169921876 2.8232625 Q 3.4312899169921875 2.8232625 3.398289916992187 2.8633875 Q 3.3652899169921873 2.9035124999999997 3.3652899169921873 2.9755125 Q 3.3652899169921873 3.0272625 3.3829149169921875 3.0692625 Q 3.4005399169921873 3.1112625 3.433914916992187 3.1360125 Q 3.4672899169921876 3.1607625 3.5122899169921875 3.1607625 Q 3.5707899169921875 3.1607625 3.6056649169921875 3.1195125 M 4.1670596923828125 3.1630125 Q 4.1670596923828125 3.1675125 4.165559692382812 3.1675125 Q 4.146809692382813 3.1675125 4.136309692382812 3.1667625 L 4.0973096923828125 3.1660125 L 4.0500596923828125 3.1667625 Q 4.038809692382812 3.1675125 4.020059692382812 3.1675125 Q 4.018559692382812 3.1675125 4.018559692382812 3.1630125 Q 4.018559692382812 3.1585125 4.020059692382812 3.1585125 Q 4.044059692382812 3.1585125 4.055684692382812 3.1540125 Q 4.067309692382812 3.1495125 4.071434692382812 3.1386374999999997 Q 4.075559692382813 3.1277625 4.075559692382813 3.1052625 L 4.075559692382813 2.9560125 Q 4.075559692382813 2.8840125 4.0504346923828125 2.8558875 Q 4.025309692382812 2.8277625 3.9780596923828124 2.8277625 Q 3.944309692382812 2.8277625 3.9154346923828123 2.8416375 Q 3.886559692382812 2.8555125 3.854309692382812 2.8900125 L 3.854309692382812 3.1052625 Q 3.854309692382812 3.1277625 3.8584346923828123 3.1386374999999997 Q 3.862559692382812 3.1495125 3.873809692382812 3.1540125 Q 3.8850596923828125 3.1585125 3.9083096923828125 3.1585125 Q 3.910559692382812 3.1585125 3.910559692382812 3.1630125 Q 3.910559692382812 3.1675125 3.9083096923828125 3.1675125 Q 3.888059692382812 3.1675125 3.876059692382812 3.1667625 L 3.830309692382812 3.1660125 L 3.7860596923828123 3.1667625 Q 3.7740596923828122 3.1675125 3.7530596923828123 3.1675125 Q 3.7515596923828123 3.1675125 3.7515596923828123 3.1630125 Q 3.7515596923828123 3.1585125 3.7530596923828123 3.1585125 Q 3.7770596923828124 3.1585125 3.7886846923828124 3.1543875 Q 3.8003096923828124 3.1502624999999997 3.804809692382812 3.1397625 Q 3.8093096923828123 3.1292625 3.8093096923828123 3.1067625 L 3.8093096923828123 2.8772625 Q 3.8093096923828123 2.8547625 3.805184692382812 2.8442625 Q 3.8010596923828124 2.8337624999999997 3.7898096923828124 2.8296375 Q 3.7785596923828124 2.8255125 3.7553096923828124 2.8255125 Q 3.7530596923828123 2.8255125 3.7530596923828123 2.8210125 Q 3.7530596923828123 2.8165125 3.7553096923828124 2.8165125 L 3.804059692382812 2.8172625 L 3.840809692382812 2.8165125 Q 3.849809692382812 2.8165125 3.852059692382812 2.8191375 Q 3.854309692382812 2.8217625 3.854309692382812 2.8307625 L 3.854309692382812 2.8750125 Q 3.889559692382812 2.8397625 3.924059692382812 2.8236375 Q 3.958559692382812 2.8075125 3.9975596923828123 2.8075125 Q 4.053059692382813 2.8075125 4.086809692382812 2.8378875 Q 4.1205596923828125 2.8682625 4.1205596923828125 2.9312625 L 4.1205596923828125 3.1067625 Q 4.1205596923828125 3.1292625 4.123934692382813 3.1401375 Q 4.127309692382812 3.1510124999999998 4.136684692382812 3.1547625 Q 4.146059692382813 3.1585125 4.165559692382812 3.1585125 Q 4.1670596923828125 3.1585125 4.1670596923828125 3.1630125 M 4.720554931640625 3.1262625 Q 4.723554931640625 3.1262625 4.724679931640625 3.1296375 Q 4.725804931640625 3.1330125 4.722804931640625 3.1345125 L 4.644054931640625 3.1720125 Q 4.641054931640625 3.1735124999999997 4.638804931640625 3.1735124999999997 Q 4.626804931640625 3.1735124999999997 4.615179931640625 3.1588875 Q 4.603554931640625 3.1442625 4.600554931640625 3.1187625 L 4.551054931640625 3.1465125 Q 4.524804931640625 3.1607625 4.507554931640625 3.1667625 Q 4.490304931640625 3.1727625 4.475304931640625 3.1727625 Q 4.4490549316406245 3.1727625 4.431054931640625 3.1570125 Q 4.413054931640625 3.1412625 4.413054931640625 3.1210125 Q 4.413054931640625 3.0925124999999998 4.431804931640625 3.0752625 Q 4.4505549316406245 3.0580125 4.501554931640625 3.0392625 L 4.599804931640625 3.0032625 L 4.599804931640625 2.9147625 Q 4.599804931640625 2.8690125 4.586679931640625 2.8480125 Q 4.573554931640625 2.8270125 4.545804931640625 2.8270125 Q 4.511304931640625 2.8270125 4.4951799316406245 2.8483875 Q 4.479054931640625 2.8697624999999998 4.470054931640625 2.9042624999999997 Q 4.466304931640625 2.9170125 4.459929931640625 2.9248875 Q 4.453554931640625 2.9327625 4.440804931640625 2.9327625 Q 4.428804931640625 2.9327625 4.421304931640625 2.9256375 Q 4.413804931640625 2.9185125 4.413804931640625 2.9080125 Q 4.413804931640625 2.8892625 4.440429931640625 2.8660125 Q 4.467054931640625 2.8427625 4.505304931640625 2.8262625 Q 4.5435549316406245 2.8097624999999997 4.574304931640625 2.8097624999999997 Q 4.606554931640625 2.8097624999999997 4.626054931640625 2.8303875 Q 4.645554931640625 2.8510125 4.645554931640625 2.8922625 L 4.645554931640625 3.0797624999999997 Q 4.645554931640625 3.1360125 4.6823049316406244 3.1360125 Q 4.697304931640625 3.1360125 4.719054931640625 3.1262625 L 4.720554931640625 3.1262625 M 4.599804931640625 3.1082625 L 4.599804931640625 3.1052625 L 4.599804931640625 3.0130125 L 4.517304931640625 3.0452624999999998 Q 4.489554931640625 3.0557625 4.478679931640625 3.0692625 Q 4.467804931640625 3.0827625 4.467804931640625 3.1015125 Q 4.467804931640625 3.1202625 4.479804931640625 3.1330125 Q 4.491804931640625 3.1457625 4.508304931640625 3.1457625 Q 4.526304931640625 3.1457625 4.548054931640625 3.1345125 L 4.599804931640625 3.1082625 M 5.171325439453125 3.1630125 Q 5.171325439453125 3.1675125 5.169825439453125 3.1675125 Q 5.151075439453125 3.1675125 5.140575439453126 3.1667625 L 5.101575439453125 3.1660125 L 5.054325439453125 3.1667625 Q 5.043075439453125 3.1675125 5.024325439453126 3.1675125 Q 5.0228254394531255 3.1675125 5.0228254394531255 3.1630125 Q 5.0228254394531255 3.1585125 5.024325439453126 3.1585125 Q 5.048325439453125 3.1585125 5.059950439453125 3.1540125 Q 5.071575439453126 3.1495125 5.075700439453125 3.1386374999999997 Q 5.079825439453125 3.1277625 5.079825439453125 3.1052625 L 5.079825439453125 2.9560125 Q 5.079825439453125 2.8840125 5.054700439453125 2.8558875 Q 5.029575439453125 2.8277625 4.982325439453125 2.8277625 Q 4.948575439453125 2.8277625 4.919700439453125 2.8416375 Q 4.890825439453125 2.8555125 4.8585754394531255 2.8900125 L 4.8585754394531255 3.1052625 Q 4.8585754394531255 3.1277625 4.862700439453125 3.1386374999999997 Q 4.866825439453125 3.1495125 4.878075439453125 3.1540125 Q 4.889325439453125 3.1585125 4.912575439453125 3.1585125 Q 4.914825439453125 3.1585125 4.914825439453125 3.1630125 Q 4.914825439453125 3.1675125 4.912575439453125 3.1675125 Q 4.892325439453125 3.1675125 4.8803254394531255 3.1667625 L 4.8345754394531255 3.1660125 L 4.790325439453125 3.1667625 Q 4.778325439453125 3.1675125 4.757325439453125 3.1675125 Q 4.755825439453125 3.1675125 4.755825439453125 3.1630125 Q 4.755825439453125 3.1585125 4.757325439453125 3.1585125 Q 4.781325439453125 3.1585125 4.792950439453125 3.1543875 Q 4.804575439453125 3.1502624999999997 4.809075439453125 3.1397625 Q 4.813575439453125 3.1292625 4.813575439453125 3.1067625 L 4.813575439453125 2.8772625 Q 4.813575439453125 2.8547625 4.8094504394531254 2.8442625 Q 4.805325439453125 2.8337624999999997 4.794075439453125 2.8296375 Q 4.782825439453125 2.8255125 4.759575439453125 2.8255125 Q 4.757325439453125 2.8255125 4.757325439453125 2.8210125 Q 4.757325439453125 2.8165125 4.759575439453125 2.8165125 L 4.808325439453125 2.8172625 L 4.845075439453125 2.8165125 Q 4.854075439453125 2.8165125 4.8563254394531254 2.8191375 Q 4.8585754394531255 2.8217625 4.8585754394531255 2.8307625 L 4.8585754394531255 2.8750125 Q 4.893825439453125 2.8397625 4.9283254394531255 2.8236375 Q 4.962825439453125 2.8075125 5.001825439453125 2.8075125 Q 5.057325439453125 2.8075125 5.0910754394531255 2.8378875 Q 5.124825439453125 2.8682625 5.124825439453125 2.9312625 L 5.124825439453125 3.1067625 Q 5.124825439453125 3.1292625 5.128200439453125 3.1401375 Q 5.131575439453125 3.1510124999999998 5.140950439453125 3.1547625 Q 5.150325439453125 3.1585125 5.169825439453125 3.1585125 Q 5.171325439453125 3.1585125 5.171325439453125 3.1630125 M 5.344564086914063 3.1682625 Q 5.335564086914063 3.1675125 5.322064086914063 3.1667625 Q 5.308564086914063 3.1660125 5.291314086914063 3.1660125 L 5.247064086914063 3.1667625 Q 5.234314086914063 3.1675125 5.212564086914063 3.1675125 Q 5.211064086914063 3.1675125 5.211064086914063 3.1630125 Q 5.211064086914063 3.1585125 5.212564086914063 3.1585125 Q 5.238064086914063 3.1585125 5.249689086914063 3.1547625 Q 5.261314086914063 3.1510124999999998 5.265439086914063 3.1401375 Q 5.2695640869140625 3.1292625 5.2695640869140625 3.1067625 L 5.2695640869140625 2.8772625 Q 5.2695640869140625 2.8547625 5.265439086914063 2.8442625 Q 5.261314086914063 2.8337624999999997 5.249689086914063 2.8296375 Q 5.238064086914063 2.8255125 5.213314086914063 2.8255125 Q 5.211814086914063 2.8255125 5.211814086914063 2.8210125 Q 5.211814086914063 2.8165125 5.213314086914063 2.8165125 L 5.247064086914063 2.8172625 Q 5.275564086914063 2.8187625 5.291314086914063 2.8187625 Q 5.314564086914063 2.8187625 5.337814086914063 2.8165125 Q 5.367814086914063 2.8150125 5.382814086914063 2.8150125 Q 5.445814086914063 2.8150125 5.491564086914063 2.8375125 Q 5.537314086914063 2.8600125 5.561314086914063 2.8997625 Q 5.585314086914063 2.9395124999999998 5.585314086914063 2.9897625 Q 5.585314086914063 3.0415125 5.560564086914063 3.0827625 Q 5.535814086914063 3.1240125 5.491939086914063 3.1472625 Q 5.448064086914063 3.1705125 5.391814086914063 3.1705125 Q 5.370064086914063 3.1705125 5.344564086914063 3.1682625 M 5.491939086914063 3.1180125 Q 5.531314086914063 3.0760125 5.531314086914063 2.9980124999999997 Q 5.531314086914063 2.9230125 5.492689086914063 2.8742625 Q 5.454064086914063 2.8255125 5.376814086914063 2.8255125 Q 5.342314086914063 2.8255125 5.328439086914063 2.8367625 Q 5.314564086914063 2.8480125 5.314564086914063 2.8787625 L 5.314564086914063 3.0985125 Q 5.314564086914063 3.1322625 5.328439086914063 3.1461375 Q 5.342314086914063 3.1600125 5.382814086914063 3.1600125 Q 5.452564086914063 3.1600125 5.491939086914063 3.1180125 M 6.462065551757814 3.1630125 Q 6.462065551757814 3.1675125 6.4605655517578136 3.1675125 Q 6.440315551757814 3.1675125 6.429065551757813 3.1667625 L 6.381815551757813 3.1660125 L 6.336065551757813 3.1667625 Q 6.324065551757814 3.1675125 6.303815551757814 3.1675125 Q 6.302315551757814 3.1675125 6.302315551757814 3.1630125 Q 6.302315551757814 3.1585125 6.303815551757814 3.1585125 Q 6.328565551757814 3.1585125 6.340190551757813 3.1547625 Q 6.351815551757814 3.1510124999999998 6.355940551757813 3.1401375 Q 6.360065551757813 3.1292625 6.360065551757813 3.1067625 L 6.360065551757813 2.9462625 Q 6.360065551757813 2.8862625 6.339815551757813 2.8570124999999997 Q 6.3195655517578135 2.8277625 6.278315551757814 2.8277625 Q 6.215315551757813 2.8277625 6.165065551757814 2.8892625 Q 6.168065551757813 2.9035124999999997 6.168065551757813 2.9237625 L 6.168065551757813 3.1067625 Q 6.168065551757813 3.1292625 6.172190551757813 3.1401375 Q 6.176315551757813 3.1510124999999998 6.187565551757814 3.1547625 Q 6.198815551757813 3.1585125 6.2235655517578135 3.1585125 Q 6.2258155517578135 3.1585125 6.2258155517578135 3.1630125 Q 6.2258155517578135 3.1675125 6.2235655517578135 3.1675125 Q 6.204065551757814 3.1675125 6.192815551757813 3.1667625 L 6.144815551757813 3.1660125 L 6.099065551757813 3.1667625 Q 6.087815551757814 3.1675125 6.067565551757814 3.1675125 Q 6.066065551757814 3.1675125 6.066065551757814 3.1630125 Q 6.066065551757814 3.1585125 6.067565551757814 3.1585125 Q 6.092315551757814 3.1585125 6.103940551757813 3.1547625 Q 6.115565551757814 3.1510124999999998 6.119690551757813 3.1401375 Q 6.123815551757813 3.1292625 6.123815551757813 3.1067625 L 6.123815551757813 2.9462625 Q 6.123815551757813 2.8862625 6.103565551757813 2.8570124999999997 Q 6.0833155517578135 2.8277625 6.042065551757814 2.8277625 Q 5.981315551757813 2.8277625 5.931065551757814 2.8862625 L 5.931065551757814 3.1067625 Q 5.931065551757814 3.1300125 5.935190551757813 3.1405125 Q 5.939315551757813 3.1510124999999998 5.950565551757814 3.1547625 Q 5.961815551757813 3.1585125 5.987315551757813 3.1585125 Q 5.988815551757813 3.1585125 5.988815551757813 3.1630125 Q 5.988815551757813 3.1675125 5.987315551757813 3.1675125 Q 5.9670655517578135 3.1675125 5.955815551757813 3.1667625 L 5.907815551757814 3.1660125 L 5.862815551757813 3.1667625 Q 5.8508155517578135 3.1675125 5.831315551757814 3.1675125 Q 5.829065551757814 3.1675125 5.829065551757814 3.1630125 Q 5.829065551757814 3.1585125 5.831315551757814 3.1585125 Q 5.855315551757814 3.1585125 5.866565551757813 3.1547625 Q 5.877815551757814 3.1510124999999998 5.881940551757814 3.1401375 Q 5.886065551757813 3.1292625 5.886065551757813 3.1067625 L 5.886065551757813 2.8772625 Q 5.886065551757813 2.8547625 5.881940551757814 2.8442625 Q 5.877815551757814 2.8337624999999997 5.865815551757813 2.8296375 Q 5.853815551757814 2.8255125 5.829065551757814 2.8255125 Q 5.8275655517578135 2.8255125 5.8275655517578135 2.8210125 Q 5.8275655517578135 2.8165125 5.829065551757814 2.8165125 L 5.883815551757814 2.8172625 L 5.916815551757813 2.8165125 Q 5.926565551757814 2.8165125 5.928815551757814 2.8191375 Q 5.931065551757814 2.8217625 5.931065551757814 2.8307625 L 5.931065551757814 2.8735125 Q 5.963315551757813 2.8390125 5.995190551757814 2.8228874999999998 Q 6.027065551757813 2.8067625 6.062315551757814 2.8067625 Q 6.101315551757813 2.8067625 6.127190551757813 2.8247625 Q 6.1530655517578134 2.8427625 6.162815551757814 2.8787625 Q 6.196565551757813 2.8405125 6.229565551757814 2.8236375 Q 6.262565551757813 2.8067625 6.298565551757814 2.8067625 Q 6.348815551757814 2.8067625 6.376565551757814 2.8363875 Q 6.404315551757813 2.8660125 6.404315551757813 2.9237625 L 6.404315551757813 3.1067625 Q 6.404315551757813 3.1292625 6.408440551757813 3.1401375 Q 6.4125655517578135 3.1510124999999998 6.424190551757814 3.1547625 Q 6.4358155517578135 3.1585125 6.4605655517578136 3.1585125 Q 6.462065551757814 3.1585125 6.462065551757814 3.1630125 M 6.783048339843751 3.1270124999999998 Q 6.785298339843751 3.1270124999999998 6.7871733398437515 3.1296375 Q 6.789048339843752 3.1322625 6.7875483398437515 3.1345125 Q 6.734298339843751 3.1765125 6.6712983398437515 3.1765125 Q 6.618048339843751 3.1765125 6.580173339843752 3.1513875 Q 6.542298339843751 3.1262625 6.523173339843751 3.0857625 Q 6.504048339843751 3.0452624999999998 6.504048339843751 2.9987624999999998 Q 6.504048339843751 2.9470125 6.5287983398437515 2.9031374999999997 Q 6.5535483398437515 2.8592625 6.594798339843751 2.8337624999999997 Q 6.636048339843751 2.8082625 6.684798339843751 2.8082625 Q 6.735048339843751 2.8082625 6.760548339843751 2.8360125 Q 6.786048339843751 2.8637625 6.786048339843751 2.9110125 Q 6.786048339843751 2.9185125 6.784173339843751 2.9218875 Q 6.782298339843751 2.9252625 6.777048339843751 2.9252625 L 6.558798339843752 2.9260125 Q 6.5542983398437515 2.9470125 6.5542983398437515 2.9725125 Q 6.5542983398437515 3.0235125 6.571548339843751 3.0643875 Q 6.588798339843751 3.1052625 6.621423339843751 3.1285125 Q 6.654048339843751 3.1517625 6.698298339843752 3.1517625 Q 6.748548339843751 3.1517625 6.782298339843751 3.1270124999999998 L 6.783048339843751 3.1270124999999998 M 6.5989233398437515 2.8476375 Q 6.572298339843751 2.8720125 6.561048339843751 2.9147625 L 6.733548339843751 2.9117625 Q 6.734298339843751 2.8690125 6.7159233398437514 2.8461374999999998 Q 6.697548339843752 2.8232625 6.661548339843751 2.8232625 Q 6.625548339843752 2.8232625 6.5989233398437515 2.8476375" fill="#fbe5c1" fill-rule="nonzero"></path></g><g clip-path="url(&quot;#SvgjsClipPath1001&quot;)"><g clip-path="url(&quot;#SvgjsClipPath1000b447093b-dd69-4016-9e23-4eabf268b4dc&quot;)"><path d=" M 3.928394657612361 -4.688571011449706 L 0.1530620894174053 -4.688571011449706 L 0.1530620894174053 -0.91323844325475 L 3.928394657612361 -0.91323844325475 Z M 0 -4.841633100867111 L 0 -0.7601763538373452 L 4.081456747029766 -0.7601763538373452 L 4.081456747029766 -4.841633100867111 Z" fill="#404040" transform="matrix(1,0,0,1,0,0)" fill-rule="evenodd"></path></g><g clip-path="url(&quot;#SvgjsClipPath1000b447093b-dd69-4016-9e23-4eabf268b4dc&quot;)"><path d=" M 4.438571011449706 -4.178394657612361 L 0.6632384432547499 -4.178394657612361 L 0.6632384432547499 -0.4030620894174053 L 4.438571011449706 -0.4030620894174053 Z M 0.5101763538373448 -4.331456747029766 L 0.5101763538373448 -0.25000000000000044 L 4.591633100867111 -0.25000000000000044 L 4.591633100867111 -4.331456747029766 Z" fill="#404040" transform="matrix(1,0,0,1,0,0)" fill-rule="evenodd"></path></g><path d=" M 1.411287124998891 -1.8700418700715549 C 1.3870285467294858 -1.8700418700715549 1.3659466870429788 -1.8787056480249138 1.3480415459393704 -1.8960332039316317 C 1.3301364048357618 -1.9133607598383497 1.3211838342839575 -1.934731412123302 1.3211838342839575 -1.9601451607864881 L 1.3211838342839575 -3.133220695671295 C 1.3211838342839575 -3.1586344443344814 1.3301364048357618 -3.1800050966194333 1.3480415459393704 -3.1973326525261516 C 1.3659466870429788 -3.2146602084328695 1.3870285467294858 -3.2233239863862284 1.411287124998891 -3.2233239863862284 C 1.4367008736620772 -3.2233239863862284 1.4580715259470294 -3.2146602084328695 1.4753990818537475 -3.1973326525261516 C 1.4927266377604653 -3.1800050966194333 1.5013904157138245 -3.1586344443344814 1.5013904157138245 -3.133220695671295 L 1.5013904157138245 -2.613394018469756 L 2.0749325162261893 -3.186936118982121 C 2.088794560951564 -3.200798163707495 2.101501435283157 -3.21032831945619 2.113053139220969 -3.2155265862282056 C 2.1246048431587807 -3.220724853000221 2.1367341322934834 -3.2233239863862284 2.149441006625077 -3.2233239863862284 C 2.1783202664696066 -3.2233239863862284 2.1991133335576682 -3.2146602084328695 2.2118202078892613 -3.1973326525261516 C 2.2245270822208543 -3.1800050966194333 2.229147763795979 -3.159500822129817 2.225682252614636 -3.1358198290573025 C 2.222216741433292 -3.1121388359847884 2.211242622692371 -3.0904793911013906 2.1927598963918715 -3.0708414944071105 L 1.7509072207705632 -2.62725606319513 L 2.2014236743452305 -2.013860584097314 C 2.215285719070605 -1.9942226874030338 2.221061571039511 -1.9731408277165268 2.2187512302519483 -1.9506150050377933 C 2.216440889464386 -1.92808918235906 2.208354696707918 -1.90902887086167 2.194492651982543 -1.893434070545624 C 2.180630607257169 -1.8778392702295779 2.1621478809566694 -1.8700418700715549 2.1390444730810456 -1.8700418700715549 C 2.106699702055172 -1.8700418700715549 2.0818635385888764 -1.882748744403148 2.0645359826821585 -1.9081624930663343 L 1.6261488182421937 -2.502497660666761 L 1.5013904157138245 -2.3777392581383916 L 1.5013904157138245 -1.9601451607864881 C 1.5013904157138245 -1.934731412123302 1.4927266377604653 -1.9133607598383497 1.4753990818537475 -1.8960332039316317 C 1.4580715259470294 -1.8787056480249138 1.4367008736620772 -1.8700418700715549 1.411287124998891 -1.8700418700715549 M 2.8546082305515004 -1.8527143141648368 C 2.7806773253495036 -1.8527143141648368 2.7102119313288506 -1.864266018102649 2.643212048489541 -1.8873694259782727 C 2.5762121656502317 -1.9104728338538968 2.517876060764281 -1.9428176048797703 2.4682037338316896 -1.9844037390558935 C 2.418531406899098 -2.0259898732320165 2.38214353949499 -2.0739294445739365 2.3590401316193663 -2.1282224530816523 C 2.3474884276815544 -2.1524810313510576 2.3477772202799994 -2.175006854029791 2.359906509414702 -2.1957999211178527 C 2.3720357985494047 -2.2165929882059143 2.3925400730390214 -2.229877447734398 2.421419332883551 -2.235653299703304 C 2.4422123999716128 -2.240273981278429 2.4627166744612285 -2.2370972626955306 2.4829321563524 -2.226123143954609 C 2.503147638243571 -2.215149025213688 2.5184536459611717 -2.1986878471023057 2.5288501795052025 -2.176739609620463 C 2.542712224230577 -2.1478603497759328 2.5655268395077555 -2.1212914307189656 2.5972940253367387 -2.0970328524495603 C 2.6290612111657214 -2.072774274180155 2.6674706267589463 -2.053136377485875 2.712522272116413 -2.038119162366719 C 2.75757391747388 -2.0231019472475635 2.804935903618909 -2.0155933396879857 2.8546082305515004 -2.0155933396879857 C 2.9100564094529977 -2.0155933396879857 2.9611726993778156 -2.0242571176413446 3.0079571003259544 -2.041584673548063 C 3.0547415012740933 -2.058912229454781 3.092573331670427 -2.084037185519522 3.121452591514957 -2.1169595417422857 C 3.1503318513594873 -2.1498818979650496 3.1647714812817522 -2.190601654345837 3.1647714812817522 -2.239118810884648 C 3.1647714812817522 -2.300342841755051 3.1408016956107927 -2.355213435459658 3.0928621242688727 -2.4037305919984684 C 3.044922552926953 -2.4522477485372787 2.966082173551386 -2.4822821787755895 2.856340986142172 -2.493833882713402 C 2.7130998573133036 -2.5076959274387765 2.6004707439196366 -2.54985964681179 2.5184536459611717 -2.620325040832443 C 2.436436548002707 -2.6907904348530964 2.3954279990234744 -2.7780057995835765 2.3954279990234744 -2.8819711350238846 C 2.3954279990234744 -2.9582123810134435 2.4167986513084263 -3.0229019230651906 2.4595399558783306 -3.0760397611791257 C 2.5022812604482345 -3.129177599293061 2.56032857273574 -3.1696085630754025 2.633681892740846 -3.1973326525261516 C 2.7070352127459523 -3.2250567419769003 2.788763518105972 -3.238918786702275 2.8788668088209057 -3.238918786702275 C 2.9493322028415587 -3.238918786702275 3.010845026310408 -3.2290998383551344 3.063405279227452 -3.209461941660854 C 3.1159655321444966 -3.189824044966574 3.1618835552972993 -3.1626775407127155 3.2011593486858603 -3.1280224288992793 C 3.2404351420744204 -3.0933673170858436 3.2745126686909662 -3.052358768106611 3.303391928535496 -3.004996781961582 C 3.3195643140484323 -2.979583033298396 3.326206543812674 -2.955613247627436 3.323318617828221 -2.9330874249487024 C 3.320430691843768 -2.910561602269969 3.309167780504402 -2.8929452537648057 3.289529883810121 -2.8802383794332127 C 3.2675816463282787 -2.866376334707838 3.243900653255764 -2.863488408723385 3.218486904592578 -2.8715746014798538 C 3.1930731559293912 -2.879660794236322 3.174012844432002 -2.8946780093554776 3.1613059701004085 -2.9166262468373203 C 3.142823243799909 -2.9501261882569754 3.120297421121176 -2.9784278629046144 3.0937285020642085 -3.0015312707802386 C 3.067159583007241 -3.0246346786558624 3.035969982375148 -3.0428286123579165 3.0001597001679317 -3.0561130718864 C 2.9643494179607144 -3.069397531414884 2.9221856985877004 -3.0760397611791257 2.87366854204889 -3.0760397611791257 C 2.7881859329090815 -3.077194931572907 2.7165653684946474 -3.0613113386584154 2.6588068488055874 -3.0283889824356516 C 2.6010483291165274 -2.9954666262128873 2.5721690692719976 -2.9449279214849597 2.5721690692719976 -2.876772868251869 C 2.5721690692719976 -2.842117756438433 2.5811216398238015 -2.8089066076172235 2.59902678092741 -2.777139421788241 C 2.6169319220310188 -2.745372235959258 2.649854278253783 -2.7179369391069543 2.6977938495957026 -2.6948335312313305 C 2.745733420937622 -2.6717301233557063 2.814754851966049 -2.6555577378427695 2.9048581426809825 -2.64631637469252 C 3.0423234195409448 -2.6324543299671457 3.1494654735641516 -2.590579403192577 3.2262843047506014 -2.520691594368815 C 3.303103135937051 -2.450803785545052 3.3415125515302755 -2.3586789466410014 3.3415125515302755 -2.244317077656663 C 3.3415125515302755 -2.178472365211135 3.3279392994033463 -2.1212914307189656 3.300792795149488 -2.072774274180155 C 3.2736462908956305 -2.0242571176413446 3.2372584234915225 -1.9835373612605574 3.1916291929371647 -1.9506150050377933 C 3.145999962382808 -1.9176926488150292 3.0940172946626534 -1.8931452779471787 3.035681189776703 -1.876972892434242 C 2.977345084890753 -1.8608005069213052 2.916987431815685 -1.8527143141648368 2.8546082305515004 -1.8527143141648368" fill="#404040" transform="matrix(1,0,0,1,0,0)" fill-rule="nonzero"></path></g></g><defs><clipPath id="SvgjsClipPath1001"><path d=" M 0 -4.841633100867111 h 4.591633100867111 v 4.591633100867111 h -4.591633100867111 Z"></path></clipPath><clipPath id="SvgjsClipPath1000b447093b-dd69-4016-9e23-4eabf268b4dc"><path d=" M 0 -4.841633100867111 L 4.591633100867111 -4.841633100867111 L 4.591633100867111 -0.25000000000000044 L 0 -0.25000000000000044 Z"></path></clipPath></defs></svg>